<?xml version="1.0" encoding="utf-8"?>
<!-- Generator: Adobe Illustrator 20.0.0, SVG Export Plug-In . SVG Version: 6.00 Build 0)  -->
<!DOCTYPE svg PUBLIC "-//W3C//DTD SVG 1.1//EN" "http://www.w3.org/Graphics/SVG/1.1/DTD/svg11.dtd">
<svg version="1.1" id="Layer_1" xmlns="http://www.w3.org/2000/svg" xmlns:xlink="http://www.w3.org/1999/xlink" x="0px" y="0px"
	 viewBox="0 0 108.8 58.2" style="enable-background:new 0 0 108.8 58.2;" xml:space="preserve">
<style type="text/css">
	.st0{fill:#0E629C;}
	.st1{fill:#FFFFFF;}
</style>
<g>
	<path class="st0" d="M106.4,49.3c0-0.2-0.1-0.8-0.1-1.3l-0.1-1.1l0,0c0,0,0,0,0,0c-0.1-0.9-0.2-1.7-0.2-2.3c0-0.2,0.1-0.6,0.2-0.8
		c0.1-0.5,0.2-0.8,0.2-1.2c0.1-0.8,0.1-2.1,0.1-3.5c-0.1-9.1,0.5-18.6,1.8-29.1l0.5-4.3l-2.2,0.7l0.3-3.3l-4.8,2
		c-0.6,0.3-1.4,0.5-2.2,0.8l-0.3-0.8l-2.9,1.1c0-0.1,0-0.1,0-0.2l0.9-4.2l-2.2,0.5L95.8,0l-5,1.3C85.1,2.8,78.6,5,71.2,7.9l-0.7,0
		L71.1,5l1.2-3.5l-4.8,0.6c-5.9,0.7-11.7,1.8-17.5,3.1l-1.4,0.3l0.5-0.7l-5.1-0.3l2.6-1.1c0,0-8.4-0.5-10.8-0.6l-2.7-0.2l0,0l-0.7,0
		L31,2.6l-2-0.1c0,0-1,1.5-1,1.5c-2.2,3.7-4.3,7.1-6.1,10.4c-2.5-3.7-4.9-7.2-7.2-10.7l-2.3-3.5L9.6,3.4c-0.7,0.8-1,1.8-1.3,3.3
		c0,0,0,0.1,0,0.1C6.7,7.1,5.4,8,4.8,9.3l-4.1,2.6l2.4,0c-0.5,0.2-1.1,0.6-1.5,1L0,14.5l1.3,1.7c4.1,5.4,7.9,10.2,11.8,14.5
		c-3.5,6.9-6.9,13.7-8.9,18.2L1.9,54l4.7-1.1l0.5,2.4l3.6-2l0,0.9c0,0,2.9,0.2,2.9,0.2l0.6,0c0.7,0,1.3,0.1,1.8,0.1l1.9,0
		c0,0,0.8-1.5,0.8-1.5l1.1-2c0.5-1,1-1.9,1.5-2.7c1-1.7,2-3.1,2.9-4.1l0.1-0.1l0.1-0.1c2-2.9,3.6-5.3,4.5-7.1c2-3,3.6-5.2,4.7-6.7
		c0.1-0.1,0.1-0.2,0.2-0.3c0,0.2-0.1,0.5-0.1,0.7l-0.3,1.8l0.6,0.3l-0.2,0.6l0.4,0.8c0.1,0.3,0.4,1.1,0.6,1.9l1,3.3
		c0,0,0.9-0.4,1.8-0.8c0.2,2.1,0.4,4.2,0.7,6.2c-0.1,0.1-0.2,0.1-0.2,0.2L36.8,46l0.4,1.3l-1.9,1.9l2.6,0.5l0.1,0.3l0.4,0l0.3,0.3
		c-0.2,0.5-0.3,1-0.3,1.5c0,0.4,0.1,1.1,0.4,2.1l1.1,4.2l3.9-2.7c7.1-4.8,14.1-8.6,21.5-11.5l1.9-0.7l0-1.8c0-0.4,0.2-1.6,0.3-2.2
		l0.8-4.8l-0.7,0.3l1.6-4.3l-6.3,2.3c-2.6,0.9-4.7,1.8-6.5,2.5l-0.9-0.6c0,0-1.8,0.9-1.8,0.9L53,35.9c0-1.5,0-2.9,0.1-4.2
		c1.1-0.4,2.5-0.9,4.1-1.4l0,0l0,0c0.3-0.1,1.3-0.4,2.7-0.7l-0.1,0.5l2.1-1c0.5-0.1,1.1-0.3,1.6-0.4l2-0.5l0.1-0.9
		c1-0.5,2.1-1,3.2-1.5c0.5,6.7,1.4,15.2,2.8,25.7l0.6,4.7l3.4-2.2l0.5,3.1l2.6-3.5l0.3,0.8l0.6-1.9l0,0l0.7,0.6c0,0,1.9-0.6,1.9-0.6
		l0.6-0.2c0.5-0.2,1-0.3,1.4-0.5l2.1-0.8l-0.2-2c-0.3-2.2-0.4-3.9-0.4-5c0,0,0,0,0,0c0-0.3,0.1-0.7,0.2-1.4l0-0.1l0-0.1
		c0.1-0.6,0.1-1.6,0.1-3.3c0-7.7,0.3-14.3,1-20.2c0.5-0.1,1-0.2,1.5-0.3c0.5,9.7,1.5,20.9,3.2,33.6l0.7,5.7l3.7-3.3l2.1,1.6l1.4-2.7
		l0.3,0.8l0.2-0.6l0.2,0.2c0,0,2.1-0.8,2.1-0.8c0.9-0.3,1.6-0.6,2.1-0.8l2.1-0.9L106.4,49.3z M47.9,6.9c-0.1,0-0.2,0.1-0.3,0.1
		l0.4-0.6L47.9,6.9z"/>
	<g>
		<path class="st1" d="M42,12.1c0.3,0.1,1,0.3,2,0.5c-1.5,2-5.5,7.7-12.2,17.1c-1.1,1.5-2.6,3.7-4.6,6.7c-0.9,1.6-2.3,3.8-4.3,6.7
			c-1,1.1-2,2.6-3.1,4.4c-0.9,1.5-1.7,3.1-2.5,4.6c-0.5,0-1.2-0.1-2.1-0.1c0-1.1,0-2-0.1-2.6l0.3-0.2l0.8-1.4l0.5-0.3l0.1-1.1
			l-2,0.8L14.1,49c-1.1,0.8-2.3,1.5-3.4,2.1l-0.3-1.3l-1.8,0.4c1.9-4.2,5.1-10.6,9.3-19c-4.3-4.7-8.4-9.8-12.4-15.1
			c0.5-0.5,2.2-0.8,2.7-1.4c0.2-0.3,0.5-1,0.7-2.2c0.2-0.9,0.8-1.4,1.7-1.6l0.1,1.4l3.1,2.1l-0.6-1.9L12,11.4l-0.1-0.5l-0.1,0
			c0.5-0.3,0.8-1,1-1.9c0.2-1,0.4-1.7,0.7-2c3.3,5,6.6,9.8,9.9,14.5c2.5-4.7,5.3-9.5,8.3-14.3c0.9,0.1,2.2,0.1,4.1,0.2l-0.9,0.4
			l-1.1,2.9l1.6-1l0.8-1.4l0.5-0.2l0.1-0.7l1.7,0.1c-0.3,1-0.5,1.9-0.7,2.7c0.7-0.4,1.8-0.8,3.2-1.5C41.9,8.9,43,9,44.1,9.1
			C43.6,9.7,42.9,10.7,42,12.1z M13.2,17.4l-0.9-1l-0.1-0.4l-1-0.4l0.1,1.6l2.2,1.5L13.2,17.4z M17.1,19.7l-0.6-0.6l-0.1-0.2
			l-0.5-0.2l0.1,1l1.4,1L17.1,19.7z M15.8,43.2L15,45.4l1.2-0.8l0.6-1l0.4-0.2l0.1-0.8L15.8,43.2z M34.5,13l-0.8,2.3l1.3-0.8l0.6-1
			l0.4-0.2l0.1-0.8L34.5,13z"/>
		<path class="st1" d="M66.8,9.7l-0.6,0l-1,0.5l-0.3-0.1l-0.6,0.6l1.3,0.2l1.3-0.8c-0.1,0.3-0.1,0.7-0.2,1.3l-2.7,1.4l3,0.2
			c-0.2,0.7-0.5,1.7-0.9,3.2c-5.8,1.2-10.7,2.6-14.8,4c-0.2,1.2-0.3,2.3-0.4,3.5c3-0.9,6.4-1.9,10.3-2.9c-0.1,0.3-0.1,0.8-0.2,1.4
			c0.8-0.2,2-0.5,3.7-0.8c-0.3,0.8-0.6,1.9-0.9,3.4C63.1,24.9,62.6,25,62,25c0.1,0.2,0.4,0.5,0.8,0.9c-0.1,0.3-0.3,0.7-0.3,1.2
			c-3.5,0.9-5.6,1.5-6.2,1.6c-2.3,0.7-4.3,1.3-6,2.1c-0.1,1.7-0.2,3.7-0.2,5.9c0,1.3,0,2.7,0.1,4.4c1.4-0.7,3.1-1.5,4.9-2.4l0.8,0.5
			c1.8-0.8,4.4-1.9,7.7-3.1c-0.1,0.2-0.4,1.5-1.1,4c0.6-0.2,1.1-0.4,1.4-0.5c-0.2,1.1-0.3,2-0.3,2.5c-7.4,2.9-14.5,6.7-21.4,11.4
			c-0.2-0.8-0.3-1.3-0.3-1.4c0-0.5,0.6-1.6,0.6-2.1c-0.5-0.6-1-1.1-1.4-1.4c0.1-0.2,0.3-0.6,0.5-1.1l-0.8,0.1l-0.1-0.2
			c0.2-0.2,0.7-0.5,1.3-1c-0.5-3.2-0.9-6.9-1.2-11.3c-0.5,0.3-1.3,0.7-2.4,1.1c-0.3-1-0.5-1.7-0.7-2.1c0.2-0.7,0.5-1.2,0.7-1.6
			l-1-0.5c0.1-0.8,0.3-1.9,0.7-3c1.1-0.5,1.9-0.8,2.4-1.1l0-3.5c-1.1,0.4-2.7,1.1-4.9,2.1c0.1-0.4,0.8-1.7,1.9-4.1
			c-0.2-0.3-0.5-0.8-1-1.4c0.7-0.7,1.3-1.2,1.7-1.7c-0.3-0.3-0.7-2-1-2.4c0.5-0.7,0.8-1.2,1-1.6c4.6-1.8,8.8-3.3,12.7-4.6l0.3-1
			c5.5-1.3,11-2.3,16.5-2.9C67.2,7.6,66.9,8.7,66.8,9.7z M43.4,47l-0.9,0.4l-0.4,0L41.5,48l1.2,0.2l1.9-1.3L43.4,47z M46.6,44.7
			L45.9,45l-0.2,0l-0.3,0.4l0.8,0.1l1.1-0.8L46.6,44.7z M61.3,12.3l-0.7,0.4l-0.3-0.1L59.9,13l1,0.2l1.4-0.9L61.3,12.3z M58.5,22.5
			l-0.9,0.4l-0.4,0l-0.5,0.5l1.3,0.2l1.8-1.3L58.5,22.5z"/>
		<path class="st1" d="M90.9,11.1l-2.8,2l2-0.1l1.6-0.8l0.6,0l-0.1,1.2l-1.1,0.3c0.3,0.4,0.6,0.8,1,1.1c-0.3,0.7-0.5,1.2-0.5,1.6
			c-3.2,0.6-5.9,1.2-8.2,1.8c-0.8,6.3-1.2,13.4-1.2,21.6c0,1.4-0.1,2.4-0.1,2.9c-0.2,1.1-0.3,1.7-0.3,1.6c0,1.3,0.2,3,0.4,5.3
			c-0.5,0.2-1.1,0.4-1.8,0.6c-0.5-0.4-1.2-1.1-1.9-1.9L77.3,50l-0.2-1.2l0.3-0.5l-0.7-1l-1.1,1.7l0.8,2.1l-0.1,0.1l-1-0.7l-1.3,0.8
			c-1.6-12-2.6-21.5-3-28.8c-2.7,1.2-5.3,2.4-7.8,3.6l0.4-3c0.3-0.3,0.8-0.8,1.4-1.4c-0.3-0.2-1-0.4-1.7-0.8c-0.1-1,0.1-2.3,0.4-3.9
			c0,0-0.3-0.5-0.8-1.5c10.6-4.5,19.8-7.9,27.4-9.9c-0.1,0.5-0.3,1.1-0.5,1.9c0.7-0.1,1.5-0.2,2.3-0.4c-0.1,0.3-0.1,0.6-0.1,0.9
			c0,0.7,0.2,2.4,0.2,3.1L90.9,11.1z M84.3,12l-2,1.4l1.4-0.1l1.1-0.5l0.5,0l0.5-0.7L84.3,12z M86.2,13.6l-1.1,0.9l0.9-0.1l0.7-0.3
			l0.3,0l0.3-0.4L86.2,13.6z M76,44.9l0.1-0.3l-0.4-0.5l-0.6,1l0.7,1.7l0.3-1L76,44.9z M78.3,42.8l0.1-0.4L78,41.7l-0.7,1.3l0.8,2.3
			l0.4-1.3L78.3,42.8z"/>
		<path class="st1" d="M101.7,39.8c0,1.6-0.1,2.6-0.1,3.2c0,0.3-0.4,1.5-0.4,2c0,0.7,0.1,1.6,0.2,2.6c0.1,1.4,0.2,2.3,0.3,2.6
			c-0.4,0.2-1,0.4-1.8,0.7c-0.4-0.4-1-1-1.8-1.9l-0.2-1.1l0.3-0.5l-0.8-1.1l-1.1,2l0.8,2c-0.3,0.4-0.7,0.9-1.1,1.7l-1-0.7
			c-0.5,0.2-0.9,0.5-1.3,0.9c-2.1-15.6-3.2-28.8-3.3-39.6c1.3-0.4,3.2-1.2,5.8-2.1c0.1,0.4,0.3,0.8,0.7,1.5l-0.5,0.8l1.1,3.1
			l0.6-1.8l-0.2-1.6l0.2-0.5l-0.3-0.5l1-1.1c1-0.3,2-0.6,2.9-1c-0.1,0.7,1.1,0.8,1.1,1.5c0.3-0.2,0.3,0.7,0.5,0.7l0.2-0.1
			C102.3,21.4,101.7,30.8,101.7,39.8z M94.7,15.6l0.2-0.3l-0.5-0.7l-0.7,1.3l0.8,2.1l0.5-1.3L94.7,15.6z M96.7,20.3l0.1-0.2
			l-0.3-0.4l-0.4,0.7l0.4,1.3l0.3-0.7L96.7,20.3z M99.1,43.4l0.2-0.4l-0.5-0.7l-0.7,1.2l0.7,2.1l0.5-1.2L99.1,43.4z"/>
	</g>
</g>
</svg>
