<?xml version="1.0" encoding="utf-8"?>
<!-- Generator: Adobe Illustrator 20.0.0, SVG Export Plug-In . SVG Version: 6.00 Build 0)  -->
<!DOCTYPE svg PUBLIC "-//W3C//DTD SVG 1.1//EN" "http://www.w3.org/Graphics/SVG/1.1/DTD/svg11.dtd">
<svg version="1.1" id="Layer_1" xmlns="http://www.w3.org/2000/svg" xmlns:xlink="http://www.w3.org/1999/xlink" x="0px" y="0px"
	 viewBox="0 0 238.2 377.6" style="enable-background:new 0 0 238.2 377.6;" xml:space="preserve">
<style type="text/css">
	.st0{opacity:0.42;}
	.st1{fill:#0E629C;}
	.st2{fill:#FFFFFF;}
	.st3{fill:#BFE6F1;}
</style>
<g class="st0">
	<path class="st1" d="M109.5,0c0,0,14.2,1.4,22.3,17.8c0,0,5.9-5.6,5.9-13.3c0,0,16.2,9.5,17.1,29.9c0,0,6-4,8.5-11.9
		c0,0,13.2,10.5,5.1,34.4c0,0,21,26.1,29.4,42.7c8.4,16.6,12.7,33.3,16,58.2c0,0,12.3-4.7,22.6,3c0,0-12.9,11.4-14,26.5
		c0,0,20.2,9.3,15,33.9c0,0-2.9-5.7-8.7-8.2c0,0,14.3,26.2,3.2,52.9c0,0-1.4-9.7-8.8-8.6c0,0,9.5,17.9-3.2,40.2c0,0,0.8-7.9-9.6-14
		c0,0,2.6,15.9-6.5,30c0,0-1.9-12.7-10.6-15.3c0,0,5.3,16-11.9,47.4l-25.6,4.9c0,0-3.6,3.8-4.3,12.4c0,0-4.6,0.6-8.8-2.9
		c0,0-3.5,5.2-4.7,11.3c0,0-6.5-2.5-8.2-5.7c0,0-6.4,6.8-6.8,12c0,0-5.4-5.3-7.2-11.2c0,0-5.3,5.9-8.3,11c0,0-2.6-5.6-1.7-15.5
		c0,0-5.5,7.5-5.8,11.1c0,0-5-11.9-7-26.9c0,0-16.8,0.2-29.6-4.9c0,0-2.6-26.9-9-35.7c0,0-9.3,1.5-5.7,16.3c0,0-18.4-5.8-15.4-36.6
		c0,0-5.9,6.5-4.4,15.1c0,0-22.2-15.9-15-44.9c0,0-6.9,3.5-6.5,8.7c0,0-20.3-19.8,6.9-65.9c0,0-5.4-5.6-11.8,4.4
		c0,0-3.4-22.7,18-32.5c0,0-1.3-10-9.4-15.2c0,0,7.9-12.9,22.4-9.6c0,0,2.2-36.8,14.2-56.9c12-20.1,33.2-32,38.7-42.6
		c5.5-10.5,10.7-26.3,5.7-34.6c0,0,9.9-0.2,17.9,10.4C109.8,21.6,114.4,10,109.5,0z"/>
	<path class="st2" d="M100.5,334.4c0,0-2.8,16.8,1.6,25.6c0,0,0.7-3.2,3.5-5.4c0,0,4.7,4.2,3.3,11.6c0,0,2.6-2,3.6-5.7
		c1-3.7,4.2-7.6,6-7.7c0,0,1.5,14.5,3.8,16.7c0,0,2.5-10.2,8.6-15.6c0,0,0.4,7.5,5.3,8.9c0,0,2.5-3.8,2.7-7.7
		c0.3-3.9,1.3-7.6,2.7-7.7c0,0,0.7,7.2,4.9,8.6c0,0,1-13.9,6.8-19.3l1.2,1c0,0,4.2-0.3,10.5-2.6c6.3-2.3,6.5-2.1,8.1-9.4
		c1.7-7.2,4.2-31.5,4-34.1c-0.2-2.5-1.4-8.5-3.3-10c0,0,3.3,1.9,4.9,4.2c1.6,2.2,1.7,8.1,1.5,12.7c-0.2,4.6-1.1,20-2.9,27.6
		c0,0,2.6-2.4,3.5-6.6c1-4.3,4-26.9,4-30.2c-0.1-3.3-1.9-8.1-4-9.7c-2.1-1.7-10.2-8-15.2-8.9c0,0,5.7-7.4,16-1.7
		c0,0-0.7-14.4-7.3-23c0,0,13.3-3.9,19.8,10.9c0,0,6.2-18.2-5.3-31.7c0,0,12.4-1.8,17.6,6.2c0,0,0.2-9.1-3.6-13.6
		c-3.8-4.5-6.3-5.4-9.9-8.9c-3.6-3.6-6.4-6.5-7.1-11.7c-0.8-5.2-5.8-30,3.9-37.9c0,0-1.4,15.3,3.2,25.1c0,0,3.6-2.8,5-12.2
		c1.3-9.4,3.1-15.4,2.7-20.1c-0.4-4.7-1.9-37.4-11.6-51.5c-9.7-14.1-23.1-32.8-31.8-33.6c0,0-6.3,8.7-19.5,16.6
		c0,0,33.2-27.3,24.3-50.7c0,0-5.4,11.7-16.7,14.4c0,0,9.3-18.4-4.7-33.6c0,0-0.4,14.6-12.7,24.8c0,0,8-20.1-10.9-28
		c0,0,2.1,10.6-6.4,17.8c0,0-2.2-7-11.3-9c0,0,4.1,19.8-9.2,31.3C76.6,62.1,45.1,99.8,42,131.8c0,0,12.6,16.4,5.7,31.5
		c-6.9,15.1-22.9,8.8-27.7,13c-4.8,4.2-10.2,9.1-11,14.7c0,0,8.4-4.1,16.4-1.9c0,0,2-4.7,7.4-4.4c0,0-0.6,3.9-5.6,8.1
		c-5,4.2-23,21.2-18.6,57.9c0,0,4.4-10.5,14.6-11.1c0,0-9.3,35.4,3.3,48.3c0,0,4.3-11.4,13.5-15.4c0,0-4.5,22.8,3.7,38.8
		c0,0,1.4-14.9,15.5-15.8c0,0,5.3,6.4,8.9,42.6c0,0,15-1.1,27.4,2.7C95.5,340.8,96.5,337.3,100.5,334.4z"/>
	<path class="st3" d="M116.4,165.2c0,0-9-18.6-56.8-12.7c0,0-12.1,13.5-12.7,31.7c0,0,9-22.7,17.2-25.3c0,0,31.3-5.4,50.9,14.7
		L116.4,165.2z"/>
	<path class="st3" d="M109.3,139.1c0,0-22.2-15.9-3.7-42.9C105.7,96.1,97.9,117.1,109.3,139.1z"/>
	<path class="st3" d="M141.9,140.7c0,0-34.7-2.2-20.8-44.7C121.1,96,118.9,124.4,141.9,140.7z"/>
	<path class="st3" d="M155.9,143c0,0,25.3-8.9,14.1-38.5C170,104.5,172.4,125.8,155.9,143z"/>
	<path class="st3" d="M130.7,140.8c0,0,28.9-5.2,22-38.8C152.7,102.1,151.4,125.3,130.7,140.8z"/>
	<path class="st3" d="M89.8,75c0,0-32.3,8.8-21.6,44.4C68.3,119.4,67.7,94.2,89.8,75z"/>
	<path class="st3" d="M109.9,72.2c0,0,25.6,8.1,33.9-20.5C143.9,51.6,133.3,68.9,109.9,72.2z"/>
	<ellipse class="st3" cx="121.5" cy="321" rx="10.6" ry="8.7"/>
	<path class="st3" d="M104.5,221.9c0,0,14-22.1,26.9-2l-1.5-4.1l-5.7-7.8l-3.1-3.3l-9,0.9l-6.1,10.2L104.5,221.9z"/>
	<path class="st3" d="M113.2,225.1c0,0,8.5-5.8,11.4-1.5l-0.7-2.7l-3.9-3.1l-6.4,3.3L113.2,225.1z"/>
	<path class="st3" d="M114.9,272.4l-6.1-13.5l-15.4-10l-10.1,7.6l-2.3,5.2C81,261.8,101.3,255.4,114.9,272.4z"/>
	<path class="st2" d="M19,157.1c0,0,9.2-8.1,25.9-0.4c0,0-1,12.4-6.7,13c-5.7,0.6-7.7-1.2-7.7-1.2S28,159.9,19,157.1z"/>
	<path class="st1" d="M75.7,141.7c0,0,24-3.6,45.1,14.9c0,0,27.1-9.3,52.6,4.9c0,0,2.1-1.3,3.9-2.5c1.7-1.2,0.9-5.7,0.7-8.3
		c-0.2-2.5,3.4-33.5-7.7-46.5c0,0,3.2,28.2-7.3,34.5c0,0-0.9-18.7-10-37c0,0-1.6,22.6-11.2,34.2l-3.7-36.8c0,0-6.4,22.4-15.2,30.3
		l-1.8-33.6c-10.9,16.5-20.4,31.3-20.4,31.3s-2.4-11.9,5.2-31.2C105.7,95.9,73.5,122.4,75.7,141.7z"/>
	<path class="st1" d="M91.4,157.2c0,0,14-2.1,25,7.3c0,0,15.9,1,27.8,7.8c0,0-8.5,1.7-10.5,1.7c-2,0-10.9-2.8-18.6-0.4
		C115,173.5,108.2,163.6,91.4,157.2z"/>
	<path class="st1" d="M73.6,109.4c0,0-9.8-27.2,20.3-30.7l-2.6,2.4c0,0,2.9-0.4,4.7,1.1C96,82.2,78,85,73.6,109.4z"/>
	<path class="st1" d="M114.3,67c0,0,18.9,1.5,20.7-17.8c0,0,2.5,4.4,1.1,7.4c0,0,1.3,0.3,3.2-1C139.4,55.6,133.4,76.5,114.3,67z"/>
	<path class="st1" d="M99,56.2c0,0,18.8-1.6,16.5-22.4C115.5,33.8,113.3,47.9,99,56.2z"/>
	<path class="st1" d="M115.6,198.6c0,0-14.1,13.1-11.1,23.3c0,0,5.7-11.7,16.1-15.8c0,0,7.5,6.2,10.8,13.8
		C131.4,219.9,129.8,206.3,115.6,198.6z"/>
	<path class="st1" d="M118.9,215.5c-2.7-1.1-8.1,5.3-7.9,7.5c0.2,2.2,1.1,2.1,2.2,2c1.1-0.1,6.9-6.2,6.9-6.2s3.3,2.7,4.8,5.1
		C124.9,224,126.3,218.4,118.9,215.5z"/>
	<path class="st3" d="M122.8,274.7c0,0,15.7-26.6,33.3-16.7l-4.2-7.1l-14.9-4.7l-13.2,20.2L122.8,274.7z"/>
	<path class="st1" d="M81,261.8c0,0,4-18.2,15.9-23.1c0,0,16.1,6.3,18,34.1c0,0-3.1-8.9-21.7-19.7C93.3,253,86.6,254.6,81,261.8z"/>
	<path class="st1" d="M156.5,258.2c0,0-2.4-14.4-13-20.8c0,0-22.9,15.6-20.7,37.3c0.2,1.6,7.2-17,18.3-23.1
		C141.1,251.6,150.4,252.2,156.5,258.2z"/>
	<path class="st3" d="M100.4,308.6c0,0,29.7-18.2,44.4-0.7l2-6.9l-0.4-6.6l-33.6-1.6l-13.9,4L100.4,308.6z"/>
	<path class="st3" d="M48.3,228.9c0,0,3.7,5,12.3,5.9c0,0,5.5,24.1,4.3,54.6c0,0-3.2-18.5-10.4-24.9c0,0-6-1.6-12,5.1
		c0,0-4.3-10.5,6.4-24.1c0,0-8.9,1.5-17.1,12.6C31.9,258.1,31.5,238.7,48.3,228.9z"/>
	<path class="st1" d="M48.8,228.8c0,0,4.2,4.1,11.9,4.8c0,0,4.8,19.7,3.6,44.6c0,0-2.8-15.1-9.3-20.3c0,0-5.4-1.2-10.9,4.3
		c0,0-1.3-8.5,4.8-16.6c0,0-6.9-1.9-14.3,7.3C34.6,252.8,37,237.8,48.8,228.8z"/>
	<path class="st1" d="M101.5,311.3c0,0-7.9-2-10.7-14.7c0,0,7.6-6.9,31.6-7.6c24-0.7,29.9,1.6,30.1,3.6c0.2,2-1,10.8-6.4,17.3
		c0,0-4.8-5.1-2.2-12.2c0,0-5.9-3-20.6-1.9c-14.6,1.1-21.4,2-22.4,5.7C99.5,306.7,101.5,311.3,101.5,311.3z"/>
	<path class="st1" d="M90.1,283.7c0,0-10.8,3.7-14,4.7c-3.2,1-2.8,2.2-1.9,6.3c0.9,4.1,2.8,9.8,3.1,13.6c0.3,3.8-0.6,15.9,1.3,17.4
		c2,1.5,5.2,5.6,16.5,2.4c0,0-5.6-3.1-6.7-3c-1.1,0.1-3.5-0.3-3.8-2.3c-0.3-2-2.7-11.7-4-16.1c-1.3-4.5-3.2-13.4-3.2-13.4
		S85,292.8,90.1,283.7z"/>
	<path class="st1" d="M117.3,323.1c0,0-0.1-8.8,4.4-9.6c4.5-0.9,5.8,8.9,5.8,8.9s-3.7-5-5.1-4.9
		C120.9,317.6,117.3,323.1,117.3,323.1z"/>
	<path class="st3" d="M202.7,217.7c-3.8-4.5-6.3-5.4-9.9-8.9c-3.6-3.6-6.4-6.5-7.1-11.7c-0.8-5.2-5.8-30,3.9-37.9
		c0,0-1.4,15.3,3.2,25.1c0,0,3.6-2.8,5-12.2c1.3-9.4,3.1-15.4,2.7-20.1c-0.4-4.7-1.9-37.4-11.6-51.5c-9.7-14.1-23.1-32.8-31.8-33.6
		c0,0-5.9,8.1-18.2,15.8c12.6,0.2,20.9-8.7,20.9-8.7c26.7,14.6,32.2,55.7,33.3,71.9c-1.6-9.4-7.7-14.9-7.7-14.9
		c3.3,17.2-3.9,26.2-3.9,26.2c1.6,5.5-7.4,8.7-7.4,8.7c-10.2-3.5-22.8,1.9-22.8,1.9c19.5,0.8,24.5,10.9,24.5,10.9l2.2,7.4L184,209
		l-10.5,9.3l-6.9,15l0.3,13.1c9.7,8.6,13.4,18.2,14.6,22.1c-0.1-2.1-1.2-14.8-7.2-22.7c0,0,13.3-3.9,19.8,10.9
		c0,0,6.2-18.2-5.3-31.7c0,0,12.4-1.8,17.6,6.2C206.3,231.3,206.6,222.1,202.7,217.7z M180.7,279.5c-2.1-1.7-10.2-8-15.2-8.9
		c16.4,5.1,15.1,17.2,14.5,20.4c0.2,2.4,0.2,5.2,0.1,7.6c-0.2,4.6-1.1,20-2.9,27.6c0,0,2.6-2.4,3.5-6.6c1-4.3,4-26.9,4-30.2
		C184.7,286,182.9,281.2,180.7,279.5z M139.4,82c-0.7,0.5-1,0.7-1,0.7c0.1,0,0.2,0,0.2,0C138.8,82.5,139.1,82.2,139.4,82z
		 M174.3,282.3c-4-3.3-9.3-4.2-9.3-4.2c10.5,7.6,7.2,11.5,7.2,11.5l-3.6,13.4c0,0-5.2,22.7-12.9,25.1c-7.7,2.5-19.3,3.5-19.3,3.5
		c3.9,9.3-1.9,17.2-1.9,17.2c-3.9-2.2-2.5-9.3-2.5-9.3c-6.6,7.9-7.2,14.5-7.2,14.5c-1.1-1.1-1.9-4.9-1.9-4.9
		c-3.3,3.8-0.7,20.4-0.7,20.4s2.5-10.2,8.6-15.6c0,0,0.4,7.5,5.3,8.9c0,0,2.5-3.8,2.7-7.7c0.3-3.9,1.3-7.6,2.7-7.7
		c0,0,0.7,7.2,4.9,8.6c0,0,1-13.9,6.8-19.3l1.2,1c0,0,4.2-0.3,10.5-2.6c6.3-2.3,6.5-2.1,8.1-9.4c1.7-7.2,4.2-31.5,4-34.1
		C176.9,289.4,175.9,284.4,174.3,282.3z"/>
	<path class="st1" d="M117.8,190.4c0,0-18.9,13.3-24,30.8c-5.1,17.5-4.8-6.9-2.3-10.8c0,0-14.5,2.2-18,2.1c-3.5-0.1-17-6.2-21.6-3.1
		c0,0,1.5,5.4,6.5,6.1c5,0.7,14.8,5.8,15.6,7.6c0.9,1.8,1.5,22.2,1.6,23.2c0.1,1.1-5.4,1.3-5.5-0.3c-0.1-1.6-1.2-13.8-1.2-13.8
		s-14.5-13.9-23.1-16.7c-0.3-0.1-0.4,0-0.4,0s-5.2,6.4-7.2,11.5c0,0-2.4-7.3,5.9-17.2c0,0-8.6,3.4-12.6,11.2c0,0,3.9-16.3,9.8-21
		c5.9-4.6,12.9-9.5,14.1-12.7c1.2-3.2,9.4-17.3,18.9-25.1c0,0,17.4-0.4,27.8,5.6c10.4,6,15.7,10.3,20.6,10
		c4.9-0.4,44.1-2.9,53.9,0.7c0,0,8.4,26.6,9.2,28.9c0.7,2.3,0,2.9-1.5,4.9c-1.5,1.9-11.8,11.1-12.6,15.2c-0.8,4.1-1.9,21.7-7.9,27
		c0,0-4.6-26.5-3.8-31.5c0.7-5,12.3-12.4,16.9-12.7c4.6-0.3,5.8-1.5,5.4-4.1c-0.4-2.5-2.4-7.5-2.4-7.5s-10.6,9.9-16.5,10.5
		c-5.8,0.6-10.1-1.6-14.1-1.1c0,0,0.3,13.8-3.9,21.6C145.4,229.6,141.5,195.8,117.8,190.4z"/>
	<path class="st3" d="M91.4,190c0.4,5-3.4,9.4-8.4,9.7c-5,0.4-9.4-3.4-9.8-8.4c-0.4-5,3.4-9.4,8.4-9.7C86.6,181.3,91,185,91.4,190z"
		/>
	<path class="st2" d="M89.9,192.1c0.3,3.6-2.4,6.7-6,6.9c-3.6,0.3-6.7-2.4-7-6c-0.3-3.6,2.4-6.7,6-6.9
		C86.5,185.9,89.7,188.5,89.9,192.1z"/>
	<path class="st3" d="M161.2,191.1c0.3,4.2-2.8,7.8-7,8.1c-4.2,0.3-7.9-2.8-8.2-7c-0.3-4.2,2.8-7.8,7-8.1
		C157.3,183.8,160.9,186.9,161.2,191.1z"/>
	<path class="st2" d="M159.4,191.8c0.3,3.6-2.4,6.7-6,6.9c-3.6,0.3-6.7-2.4-7-6c-0.3-3.6,2.4-6.7,6-6.9
		C156,185.6,159.2,188.3,159.4,191.8z"/>
	<path class="st1" d="M157.4,279.3c0,0,9.5,1.8,12.9,4.9c3.4,3,2.6,5.5,2.4,10.2c-0.2,4.8-2.9,22.5-3,26.1c-0.1,3.7-4.4,5.3-6.1,7.2
		c-1.7,2-8.9,6-22,5.7c0,0,5.6-1.5,10.7-4.8c0,0-2.7,0.2-5.4-0.3c0,0,10.1-3.1,12.4-5.7l1-5.7l-1.8,0.1c0,0,7.2-19.1,7.9-24.3
		c0.7-5.2-0.4-5.6-2.7-6.7C161.5,284.8,157.5,281.4,157.4,279.3z"/>
	<path class="st3" d="M43.5,163.4c-2.1-1.4-5.6-2.8-10-2.2c0,0,3.7,2.8,5,8.4C41,169.1,42.6,166.3,43.5,163.4z"/>
	<path class="st3" d="M110.7,358.9c3.2-10.8,0.6-21.6,0.6-21.6s0.4,8.5-4.1,11.5c-7,4.6-5.1,11.2-5.1,11.2s0.7-3.2,3.5-5.4
		c0,0,4.7,4.2,3.3,11.6c0,0,2.6-2,3.6-5.7c1-3.7,4.2-7.6,6-7.7C113.5,352.8,110.7,358.9,110.7,358.9z"/>
</g>
</svg>
